<mxfile host="app.diagrams.net" agent="Mozilla/5.0 (Windows NT 10.0; Win64; x64; rv:131.0) Gecko/20100101 Firefox/131.0" version="24.7.17">
  <diagram name="Page-1" id="e7e014a7-5840-1c2e-5031-d8a46d1fe8dd">
    <mxGraphModel grid="0" page="1" gridSize="10" guides="1" tooltips="1" connect="1" arrows="1" fold="1" pageScale="1" pageWidth="1169" pageHeight="826" background="none" math="0" shadow="0">
      <root>
        <mxCell id="0" />
        <mxCell id="1" parent="0" />
        <mxCell id="vQVJSy4edTgO_xcKqZu7-49" value="dfdfdf" style="ellipse;fillColor=strokeColor;html=1;" vertex="1" parent="1">
          <mxGeometry x="290" y="220" width="30" height="30" as="geometry" />
        </mxCell>
        <mxCell id="vQVJSy4edTgO_xcKqZu7-52" value="" style="ellipse;html=1;shape=endState;fillColor=strokeColor;" vertex="1" parent="1">
          <mxGeometry x="275" y="430" width="30" height="30" as="geometry" />
        </mxCell>
        <mxCell id="vQVJSy4edTgO_xcKqZu7-54" value="Estado inicial" style="text;strokeColor=none;align=center;fillColor=none;html=1;verticalAlign=middle;whiteSpace=wrap;rounded=0;" vertex="1" parent="1">
          <mxGeometry x="275" y="180" width="60" height="30" as="geometry" />
        </mxCell>
        <mxCell id="vQVJSy4edTgO_xcKqZu7-56" value="Estado final" style="text;strokeColor=none;align=center;fillColor=none;html=1;verticalAlign=middle;whiteSpace=wrap;rounded=0;" vertex="1" parent="1">
          <mxGeometry x="260" y="470" width="60" height="30" as="geometry" />
        </mxCell>
        <mxCell id="vQVJSy4edTgO_xcKqZu7-57" value="Estado" style="html=1;align=center;verticalAlign=top;rounded=1;absoluteArcSize=1;arcSize=10;dashed=0;whiteSpace=wrap;" vertex="1" parent="1">
          <mxGeometry x="280" y="350" width="140" height="40" as="geometry" />
        </mxCell>
        <mxCell id="vQVJSy4edTgO_xcKqZu7-58" value="Estado" style="html=1;align=center;verticalAlign=top;rounded=1;absoluteArcSize=1;arcSize=10;dashed=0;whiteSpace=wrap;" vertex="1" parent="1">
          <mxGeometry x="195" y="280" width="140" height="40" as="geometry" />
        </mxCell>
        <mxCell id="vQVJSy4edTgO_xcKqZu7-59" value="" style="html=1;verticalAlign=bottom;labelBackgroundColor=none;endArrow=block;endFill=1;rounded=0;exitX=0.75;exitY=1;exitDx=0;exitDy=0;entryX=0.25;entryY=0;entryDx=0;entryDy=0;" edge="1" parent="1" source="vQVJSy4edTgO_xcKqZu7-58" target="vQVJSy4edTgO_xcKqZu7-57">
          <mxGeometry width="160" relative="1" as="geometry">
            <mxPoint x="500" y="420" as="sourcePoint" />
            <mxPoint x="400" y="340" as="targetPoint" />
          </mxGeometry>
        </mxCell>
        <mxCell id="vQVJSy4edTgO_xcKqZu7-60" value="" style="html=1;verticalAlign=bottom;labelBackgroundColor=none;endArrow=block;endFill=1;rounded=0;exitX=0;exitY=1;exitDx=0;exitDy=0;entryX=0.5;entryY=0;entryDx=0;entryDy=0;" edge="1" parent="1" source="vQVJSy4edTgO_xcKqZu7-49" target="vQVJSy4edTgO_xcKqZu7-58">
          <mxGeometry width="160" relative="1" as="geometry">
            <mxPoint x="500" y="420" as="sourcePoint" />
            <mxPoint x="660" y="420" as="targetPoint" />
          </mxGeometry>
        </mxCell>
        <mxCell id="vQVJSy4edTgO_xcKqZu7-61" value="" style="html=1;verticalAlign=bottom;labelBackgroundColor=none;endArrow=block;endFill=1;rounded=0;exitX=0.457;exitY=1.05;exitDx=0;exitDy=0;exitPerimeter=0;entryX=1;entryY=0;entryDx=0;entryDy=0;" edge="1" parent="1" source="vQVJSy4edTgO_xcKqZu7-57" target="vQVJSy4edTgO_xcKqZu7-52">
          <mxGeometry width="160" relative="1" as="geometry">
            <mxPoint x="320" y="320" as="sourcePoint" />
            <mxPoint x="410" y="350" as="targetPoint" />
          </mxGeometry>
        </mxCell>
      </root>
    </mxGraphModel>
  </diagram>
</mxfile>
